<svg xmlns="http://www.w3.org/2000/svg" xmlns:xlink="http://www.w3.org/1999/xlink" version="1.1" x="0px" y="0px" viewBox="4.3571 -7.7878 87.142 105.1353" enable-background="new 0 0 87.142 77.878" xml:space="preserve" height="100px" width="100px">
<g id="Layer_1">
</g>
<g id="Layer_2">
	<g>
		<g>
			<path d="M87.092,38.679c0,0-0.016,0.184-0.048,0.537c-0.019,0.176-0.098,0.392-0.162,0.65c-0.106,0.24-0.208,0.535-0.4,0.823     c-0.698,1.21-2.308,2.542-4.586,3.712c-4.583,2.345-11.761,4.17-20.459,5.302c-8.706,1.115-18.997,1.533-29.952,0.671     c-5.473-0.44-11.12-1.193-16.739-2.572c-2.802-0.71-5.608-1.56-8.282-2.814c-1.332-0.631-2.638-1.364-3.802-2.333     C1.526,41.71,0.438,40.363,0.4,38.677l0.049-0.582c0.024-0.188,0.096-0.408,0.147-0.61c0.136-0.393,0.289-0.76,0.514-1.085     c0.41-0.678,0.96-1.227,1.532-1.724c1.161-0.981,2.465-1.724,3.796-2.367c2.672-1.276,5.477-2.148,8.279-2.879     c5.618-1.431,11.274-2.195,16.753-2.655c5.482-0.444,10.806-0.602,15.84-0.443c5.041,0.142,9.796,0.516,14.153,1.12     c8.712,1.173,15.863,3.134,20.449,5.472c2.276,1.181,3.883,2.521,4.578,3.737C87.222,37.868,87.042,38.704,87.092,38.679z      M86.992,38.674c-0.05,0.023,0.118-0.781-0.611-1.949c-0.691-1.175-2.291-2.48-4.562-3.621     c-4.568-2.298-11.758-4.016-20.44-4.974c-4.347-0.467-9.08-0.785-14.087-0.851c-5.011-0.059-10.297,0.023-15.741,0.484     c-5.44,0.451-11.046,1.228-16.604,2.577c-2.768,0.698-5.537,1.537-8.135,2.753c-1.293,0.61-2.548,1.318-3.628,2.216     C2.11,36.202,1.232,37.354,1.2,38.677c0.014,1.305,0.896,2.499,1.963,3.39c1.076,0.909,2.33,1.628,3.622,2.249     c2.595,1.238,5.363,2.099,8.131,2.818c5.556,1.401,11.172,2.189,16.618,2.661c5.449,0.474,10.748,0.596,15.762,0.523     c5.017-0.073,9.757-0.389,14.107-0.897c8.696-0.999,15.86-2.853,20.43-5.144c2.27-1.152,3.867-2.465,4.555-3.646     C87.113,39.463,86.942,38.657,86.992,38.674z"/>
			<path d="M54.308,32.951c0,0-0.359-0.637-1.031-1.83c-0.686-1.185-1.688-2.927-3.046-5.094c-1.357-2.166-3.048-4.772-5.137-7.656     c-2.089-2.88-4.554-6.064-7.557-9.251c-1.502-1.59-3.141-3.18-4.965-4.666c-1.828-1.449-3.859-2.909-6.231-3.558     c-1.17-0.283-2.479-0.285-3.458,0.471c-0.949,0.71-1.484,1.95-1.72,3.196c-0.473,2.539-0.215,5.253,0.236,7.926     c0.941,5.371,2.75,10.757,4.894,16.074c2.158,5.317,4.718,10.575,7.546,15.669c2.84,5.1,5.949,10.04,9.325,14.677     c3.388,4.616,6.978,9.008,11.013,12.64c2.013,1.793,4.169,3.441,6.52,4.366c1.161,0.452,2.426,0.639,3.456,0.237l0.341-0.149     l0.4-0.267c0.139-0.089,0.191-0.183,0.293-0.269c0.094-0.079,0.184-0.179,0.265-0.301c0.364-0.429,0.586-0.983,0.793-1.527     c0.701-2.28,0.564-4.762,0.317-7.064c-0.284-2.319-0.724-4.551-1.253-6.667c-1.065-4.235-2.403-8.027-3.685-11.343     c-1.282-3.319-2.567-6.148-3.668-8.454c-1.096-2.309-2.027-4.09-2.658-5.306C54.652,33.596,54.308,32.951,54.308,32.951z      M54.396,32.903c0,0,0.353,0.641,1.014,1.842c0.647,1.208,1.602,2.979,2.73,5.277c1.125,2.299,2.456,5.11,3.838,8.401     c1.369,3.294,2.809,7.065,3.995,11.311c0.583,2.124,1.113,4.367,1.426,6.739c0.28,2.363,0.491,4.89-0.249,7.46     c-0.226,0.628-0.473,1.274-0.923,1.833c-0.177,0.283-0.521,0.574-0.775,0.793l-0.396,0.273c-0.225,0.132-0.353,0.166-0.535,0.252     c-1.402,0.535-2.906,0.253-4.172-0.233c-2.573-1.019-4.766-2.725-6.832-4.559c-4.117-3.715-7.75-8.138-11.114-12.83     c-3.362-4.698-6.452-9.698-9.259-14.837c-2.814-5.148-5.349-10.439-7.486-15.803c-2.122-5.362-3.909-10.79-4.827-16.235     c-0.437-2.714-0.693-5.467-0.181-8.129c0.266-1.307,0.813-2.658,1.955-3.505c1.123-0.848,2.633-0.818,3.853-0.498     c2.497,0.721,4.516,2.231,6.351,3.718c1.824,1.524,3.45,3.142,4.939,4.757c2.966,3.244,5.412,6.447,7.497,9.338     c2.078,2.898,3.759,5.515,5.107,7.689c1.35,2.175,2.344,3.923,3.025,5.113C54.04,32.264,54.396,32.903,54.396,32.903z"/>
			<path d="M51.85,47.484c0,0,0.476-0.555,1.368-1.594c0.88-1.05,2.175-2.586,3.747-4.603c1.573-2.015,3.445-4.495,5.442-7.443     c1.994-2.947,4.144-6.351,6.115-10.262c0.981-1.955,1.916-4.038,2.69-6.26c0.738-2.213,1.416-4.62,1.216-7.072     c-0.134-1.196-0.578-2.427-1.623-3.089c-0.991-0.649-2.339-0.729-3.591-0.525c-2.548,0.422-5.011,1.592-7.369,2.929     c-4.727,2.718-9.171,6.258-13.436,10.089c-4.262,3.845-8.326,8.044-12.152,12.445c-3.82,4.407-7.404,9.019-10.608,13.774     c-3.181,4.76-6.084,9.635-8.119,14.667c-0.998,2.505-1.811,5.093-1.877,7.619c-0.029,1.245,0.228,2.498,0.957,3.33l0.257,0.27     l0.387,0.285c0.131,0.1,0.237,0.117,0.353,0.184c0.106,0.062,0.231,0.112,0.373,0.146c0.528,0.196,1.124,0.215,1.706,0.224     c2.382-0.119,4.668-1.096,6.747-2.114c2.083-1.059,4.03-2.234,5.838-3.455c3.616-2.447,6.724-4.999,9.403-7.337     c2.682-2.338,4.902-4.512,6.693-6.334c1.796-1.819,3.152-3.302,4.079-4.31C51.361,48.028,51.85,47.484,51.85,47.484z      M51.925,47.55c0,0-0.482,0.55-1.385,1.582c-0.915,1.021-2.253,2.523-4.027,4.368c-1.777,1.842-3.964,4.053-6.585,6.476     c-2.629,2.412-5.681,5.053-9.267,7.617c-1.798,1.273-3.725,2.537-5.847,3.641c-2.126,1.07-4.429,2.132-7.096,2.313     c-0.667,0.002-1.359-0.009-2.038-0.242c-0.326-0.07-0.718-0.293-1.01-0.458l-0.392-0.28c-0.201-0.167-0.277-0.275-0.42-0.417     c-0.982-1.135-1.23-2.645-1.206-4.001c0.079-2.767,0.934-5.41,1.952-7.978c2.086-5.139,5.002-10.063,8.264-14.827     c3.268-4.765,6.91-9.374,10.785-13.771c3.873-4.399,7.984-8.592,12.295-12.431c4.315-3.825,8.806-7.359,13.61-10.081     c2.401-1.338,4.901-2.518,7.578-2.947c1.319-0.196,2.776-0.144,3.962,0.641c1.18,0.766,1.668,2.195,1.784,3.451     c0.175,2.593-0.555,5.006-1.326,7.239c-0.809,2.234-1.775,4.316-2.785,6.267c-2.036,3.895-4.211,7.289-6.216,10.235     c-2.014,2.943-3.9,5.416-5.483,7.426c-1.583,2.011-2.887,3.543-3.772,4.589C52.404,46.997,51.925,47.55,51.925,47.55z"/>
		</g>
	</g>
	<circle stroke="#000000" stroke-miterlimit="10" cx="30.609" cy="3.02" r="2.548"/>
	<circle stroke="#000000" stroke-miterlimit="10" cx="24.118" cy="71.052" r="2.548"/>
	<circle stroke="#000000" stroke-miterlimit="10" cx="83.864" cy="43.154" r="2.548"/>
	<circle stroke="#000000" stroke-miterlimit="10" cx="46.921" cy="41.058" r="2.548"/>
	<circle stroke="#000000" stroke-miterlimit="10" cx="40.373" cy="39.129" r="2.548"/>
	<circle stroke="#000000" stroke-miterlimit="10" cx="46.883" cy="34.472" r="2.548"/>
</g>
</svg>